<mxfile host="app.diagrams.net" modified="2024-05-02T01:04:43.677Z" agent="Mozilla/5.0 (Windows NT 10.0; Win64; x64) AppleWebKit/537.36 (KHTML, like Gecko) Chrome/124.0.0.0 Safari/537.36" etag="7QNe6NzAbUrxJqqoIyzY" version="24.3.1" type="device">
  <diagram name="PÃ¡gina-1" id="T-QIZh58Qz9jbl46djm-">
    <mxGraphModel dx="874" dy="472" grid="1" gridSize="10" guides="1" tooltips="1" connect="1" arrows="1" fold="1" page="1" pageScale="1" pageWidth="827" pageHeight="1169" math="0" shadow="0">
      <root>
        <mxCell id="0" />
        <mxCell id="1" parent="0" />
        <mxCell id="imkFseiRFqoJYH9mtiTC-1" value="&lt;p style=&quot;margin:0px;margin-top:4px;text-align:center;&quot;&gt;&lt;b&gt;Animal&lt;/b&gt;&lt;/p&gt;&lt;hr size=&quot;1&quot; style=&quot;border-style:solid;&quot;&gt;&lt;p style=&quot;margin:0px;margin-left:4px;&quot;&gt;- nombre: string&lt;/p&gt;&lt;p style=&quot;margin:0px;margin-left:4px;&quot;&gt;&lt;span style=&quot;background-color: initial;&quot;&gt;- edad: int&lt;/span&gt;&lt;/p&gt;&lt;p style=&quot;margin:0px;margin-left:4px;&quot;&gt;&lt;span style=&quot;background-color: initial;&quot;&gt;- cazador: bool&amp;nbsp;&lt;/span&gt;&lt;/p&gt;&lt;hr size=&quot;1&quot; style=&quot;border-style:solid;&quot;&gt;&lt;p style=&quot;margin:0px;margin-left:4px;&quot;&gt;- comer()&lt;/p&gt;&lt;p style=&quot;margin:0px;margin-left:4px;&quot;&gt;- cazar()&lt;/p&gt;&lt;p style=&quot;margin:0px;margin-left:4px;&quot;&gt;- pastar()&lt;/p&gt;" style="verticalAlign=top;align=left;overflow=fill;html=1;whiteSpace=wrap;" vertex="1" parent="1">
          <mxGeometry x="40" y="60" width="190" height="130" as="geometry" />
        </mxCell>
        <mxCell id="imkFseiRFqoJYH9mtiTC-3" value="comer()" style="strokeWidth=2;html=1;shape=mxgraph.flowchart.start_2;whiteSpace=wrap;" vertex="1" parent="1">
          <mxGeometry x="414" y="40" width="180" height="100" as="geometry" />
        </mxCell>
        <mxCell id="imkFseiRFqoJYH9mtiTC-13" style="edgeStyle=orthogonalEdgeStyle;rounded=0;orthogonalLoop=1;jettySize=auto;html=1;entryX=0.5;entryY=0;entryDx=0;entryDy=0;" edge="1" parent="1" source="imkFseiRFqoJYH9mtiTC-4" target="imkFseiRFqoJYH9mtiTC-16">
          <mxGeometry relative="1" as="geometry">
            <mxPoint x="750" y="400" as="targetPoint" />
          </mxGeometry>
        </mxCell>
        <mxCell id="imkFseiRFqoJYH9mtiTC-4" value="cazar()" style="shape=parallelogram;perimeter=parallelogramPerimeter;whiteSpace=wrap;html=1;fixedSize=1;strokeWidth=2;" vertex="1" parent="1">
          <mxGeometry x="690" y="220" width="120" height="60" as="geometry" />
        </mxCell>
        <mxCell id="imkFseiRFqoJYH9mtiTC-18" value="" style="edgeStyle=orthogonalEdgeStyle;rounded=0;orthogonalLoop=1;jettySize=auto;html=1;" edge="1" parent="1" source="imkFseiRFqoJYH9mtiTC-16" target="imkFseiRFqoJYH9mtiTC-17">
          <mxGeometry relative="1" as="geometry" />
        </mxCell>
        <mxCell id="imkFseiRFqoJYH9mtiTC-16" value="cazador = cazar()" style="rounded=0;whiteSpace=wrap;html=1;" vertex="1" parent="1">
          <mxGeometry x="690" y="370" width="120" height="60" as="geometry" />
        </mxCell>
        <mxCell id="imkFseiRFqoJYH9mtiTC-31" style="edgeStyle=orthogonalEdgeStyle;rounded=0;orthogonalLoop=1;jettySize=auto;html=1;entryX=1;entryY=0.5;entryDx=0;entryDy=0;" edge="1" parent="1" source="imkFseiRFqoJYH9mtiTC-17" target="imkFseiRFqoJYH9mtiTC-32">
          <mxGeometry relative="1" as="geometry">
            <mxPoint x="750" y="690" as="targetPoint" />
          </mxGeometry>
        </mxCell>
        <mxCell id="imkFseiRFqoJYH9mtiTC-17" value="cazador = true" style="shape=document;whiteSpace=wrap;html=1;boundedLbl=1;rounded=0;" vertex="1" parent="1">
          <mxGeometry x="690" y="520" width="120" height="80" as="geometry" />
        </mxCell>
        <mxCell id="imkFseiRFqoJYH9mtiTC-21" value="" style="edgeStyle=orthogonalEdgeStyle;rounded=0;orthogonalLoop=1;jettySize=auto;html=1;" edge="1" parent="1" source="imkFseiRFqoJYH9mtiTC-3" target="imkFseiRFqoJYH9mtiTC-20">
          <mxGeometry relative="1" as="geometry">
            <mxPoint x="560" y="160" as="sourcePoint" />
            <mxPoint x="560" y="230" as="targetPoint" />
          </mxGeometry>
        </mxCell>
        <mxCell id="imkFseiRFqoJYH9mtiTC-22" style="edgeStyle=orthogonalEdgeStyle;rounded=0;orthogonalLoop=1;jettySize=auto;html=1;" edge="1" parent="1" source="imkFseiRFqoJYH9mtiTC-20" target="imkFseiRFqoJYH9mtiTC-4">
          <mxGeometry relative="1" as="geometry">
            <Array as="points">
              <mxPoint x="690" y="250" />
              <mxPoint x="690" y="250" />
            </Array>
          </mxGeometry>
        </mxCell>
        <mxCell id="imkFseiRFqoJYH9mtiTC-27" value="True" style="edgeLabel;html=1;align=center;verticalAlign=middle;resizable=0;points=[];" vertex="1" connectable="0" parent="imkFseiRFqoJYH9mtiTC-22">
          <mxGeometry x="-0.1074" relative="1" as="geometry">
            <mxPoint as="offset" />
          </mxGeometry>
        </mxCell>
        <mxCell id="imkFseiRFqoJYH9mtiTC-20" value="Come carne?" style="rhombus;whiteSpace=wrap;html=1;" vertex="1" parent="1">
          <mxGeometry x="429" y="210" width="150" height="80" as="geometry" />
        </mxCell>
        <mxCell id="imkFseiRFqoJYH9mtiTC-25" value="" style="edgeStyle=orthogonalEdgeStyle;rounded=0;orthogonalLoop=1;jettySize=auto;html=1;entryX=0.5;entryY=0;entryDx=0;entryDy=0;" edge="1" parent="1" source="imkFseiRFqoJYH9mtiTC-20" target="imkFseiRFqoJYH9mtiTC-11">
          <mxGeometry relative="1" as="geometry">
            <mxPoint x="380" y="450" as="targetPoint" />
            <mxPoint x="429" y="250" as="sourcePoint" />
            <Array as="points">
              <mxPoint x="380" y="250" />
            </Array>
          </mxGeometry>
        </mxCell>
        <mxCell id="imkFseiRFqoJYH9mtiTC-26" value="False" style="edgeLabel;html=1;align=center;verticalAlign=middle;resizable=0;points=[];" vertex="1" connectable="0" parent="imkFseiRFqoJYH9mtiTC-25">
          <mxGeometry x="-0.3655" y="-1" relative="1" as="geometry">
            <mxPoint x="1" y="43" as="offset" />
          </mxGeometry>
        </mxCell>
        <mxCell id="imkFseiRFqoJYH9mtiTC-29" value="" style="edgeStyle=orthogonalEdgeStyle;rounded=0;orthogonalLoop=1;jettySize=auto;html=1;" edge="1" parent="1" source="imkFseiRFqoJYH9mtiTC-11" target="imkFseiRFqoJYH9mtiTC-28">
          <mxGeometry relative="1" as="geometry" />
        </mxCell>
        <mxCell id="imkFseiRFqoJYH9mtiTC-11" value="cazador = false" style="shape=document;whiteSpace=wrap;html=1;boundedLbl=1;rounded=0;" vertex="1" parent="1">
          <mxGeometry x="320" y="360" width="120" height="80" as="geometry" />
        </mxCell>
        <mxCell id="imkFseiRFqoJYH9mtiTC-30" style="edgeStyle=orthogonalEdgeStyle;rounded=0;orthogonalLoop=1;jettySize=auto;html=1;entryX=0;entryY=0.5;entryDx=0;entryDy=0;" edge="1" parent="1" source="imkFseiRFqoJYH9mtiTC-28" target="imkFseiRFqoJYH9mtiTC-32">
          <mxGeometry relative="1" as="geometry">
            <mxPoint x="380" y="690" as="targetPoint" />
          </mxGeometry>
        </mxCell>
        <mxCell id="imkFseiRFqoJYH9mtiTC-28" value="pastar()" style="whiteSpace=wrap;html=1;rounded=0;" vertex="1" parent="1">
          <mxGeometry x="320" y="520" width="120" height="60" as="geometry" />
        </mxCell>
        <mxCell id="imkFseiRFqoJYH9mtiTC-32" value="comerFin" style="ellipse;whiteSpace=wrap;html=1;" vertex="1" parent="1">
          <mxGeometry x="500" y="650" width="140" height="80" as="geometry" />
        </mxCell>
      </root>
    </mxGraphModel>
  </diagram>
</mxfile>
